<?xml version="1.0" encoding="utf-8"?>
<!-- Generator: Adobe Illustrator 26.5.0, SVG Export Plug-In . SVG Version: 6.00 Build 0)  -->
<svg version="1.1" id="Capa_1" xmlns="http://www.w3.org/2000/svg" xmlns:xlink="http://www.w3.org/1999/xlink" x="0px" y="0px"
	 viewBox="0 0 76.68 80" style="enable-background:new 0 0 76.68 80;" xml:space="preserve">
<style type="text/css">
	.st0{fill:#F77F00;}
</style>
<g>
	<path class="st0" d="M69.58,80c-20.84,0-41.67,0-62.51,0c-0.09-0.04-0.18-0.11-0.28-0.13c-4.4-0.87-7.21-4.47-6.75-8.9
		c0.29-2.76,0.85-5.5,1.31-8.24c1.8-10.75,3.6-21.49,5.39-32.24c0.27-1.64,0.51-3.3,1.45-4.73c1.77-2.7,4.32-3.86,7.49-3.85
		c2.99,0.01,5.99,0,8.98,0c0.27,0,0.54-0.03,0.83-0.04c-1.91-5.09-2.16-6.44-1.55-9.91c0.61-3.5,2.36-6.37,5.09-8.61
		C34-0.72,40.7-1.11,46.22,2.34c2.59,1.62,4.48,3.89,5.63,6.71c1.77,4.35,1.43,8.63-0.78,12.87c0.41,0,0.7,0,0.98,0
		c3.02,0,6.04-0.01,9.06,0c4.51,0.03,7.66,2.62,8.5,7.04c0.44,2.32,0.81,4.66,1.2,7c1.92,11.44,3.82,22.88,5.75,34.32
		c0.62,3.7-1.14,7.27-4.48,8.88C71.29,79.54,70.41,79.72,69.58,80z M38.29,8.57c-3.37,0.02-6.09,2.77-6.07,6.13
		c0.02,3.35,2.81,6.11,6.13,6.08c3.34-0.03,6.1-2.82,6.07-6.15C44.4,11.26,41.65,8.54,38.29,8.57z"/>
</g>
</svg>
