<?xml version="1.0" encoding="utf-8"?>
<!-- Generator: Adobe Illustrator 26.5.0, SVG Export Plug-In . SVG Version: 6.00 Build 0)  -->
<svg version="1.1" id="Capa_1" xmlns="http://www.w3.org/2000/svg" xmlns:xlink="http://www.w3.org/1999/xlink" x="0px" y="0px"
	 viewBox="0 0 31.93 80" style="enable-background:new 0 0 31.93 80;" xml:space="preserve">
<style type="text/css">
	.st0{fill:#F77F00;}
</style>
<path class="st0" d="M27.31,52.75c-0.29-0.29-0.48-0.79-0.49-1.21c-0.04-1.08-0.03-2.17-0.03-3.3V10.42
	c-0.03-0.72-0.25-1.81-0.32-2.13c-1-4.29-4.52-7.49-8.87-8.16c-0.15-0.02-0.32-0.1-1.62-0.14c-1,0-1.45,0.1-1.52,0.11
	c-5.96,1.21-9.3,5.31-9.3,11.4c0,13.3,0,26.6,0.01,39.9c0,0.58-0.14,1-0.56,1.44C-3.39,60.96-0.57,74.57,10,78.81
	c1.38,0.55,2.68,1.1,5.97,1.19c1.56,0,3.42-0.36,4.29-0.6C31.99,76.13,35.87,61.4,27.31,52.75z M21.52,66.19
	c-1,2.59-3.78,4.2-6.44,3.73c-2.94-0.51-5.03-2.84-5.08-5.77c-0.04-2.16,0.87-3.9,2.68-5.08c0.55-0.36,0.72-0.73,0.72-1.37
	c-0.02-10.39-0.02-20.78-0.01-31.16c0-1.62,0.97-2.75,2.41-2.82c1.56-0.08,2.74,1.03,2.75,2.64c0.02,2.84,0.01,5.68,0.01,8.51
	c0,2.45,0,4.89,0,7.34c0,5.23,0.01,10.47-0.01,15.7c0,0.48,0.1,0.77,0.56,1.05C21.58,60.5,22.57,63.51,21.52,66.19z"/>
</svg>
