<?xml version="1.0" encoding="UTF-8"?>
<svg xmlns="http://www.w3.org/2000/svg" viewBox="0 0 149.98 120.5">
  <defs>
    <style>
      .cls-1 {
        fill: #fff;
      }

      .cls-2, .cls-3 {
        fill: none;
        stroke: #803eb6;
        stroke-linecap: round;
        stroke-linejoin: round;
      }

      .cls-3 {
        stroke-width: 2px;
      }

      .cls-4 {
        fill: #fbd574;
      }
    </style>
  </defs>
  <g id="Gato_Relleno" data-name="Gato Relleno">
    <path class="cls-4" d="M148.76,76.87c-1.09-5.3-2.82-10.52-5.14-15.54-3.01-6.51-6.9-14.02-12.93-20.26-2.42-2.51-4.25-4.74-5.33-7.49-.01-.03-.03-.07-.05-.1-.81-1.54-1.77-2.53-2.78-3.57-.25-.26-.51-.53-.78-.82-1.12-1.51-1.18-1.81-1.27-2.79-.19-2.16-.79-4.34-1.82-6.66-1.61-3.63-4.3-6.4-6.92-8.93-1.89-1.82-3.06-3.52-2.72-5.84,.58-.4,.98-1.01,1.19-1.81,.42-1.59-.32-2.91-1.88-3.36-.27-.08-.55-.04-.79,.1-.99,.59-1.85,1.3-2.68,2.02-1.44-1.07-3.12-1.26-4.62-1.44-.29-.03-.58-.07-.86-.1-5.37-.74-10.83-.55-16.11-.38l-.6,.02c-3.42,.11-6.14,.55-8.57,1.38-.3,.1-.58,.23-.83,.36-.91-.87-1.22-1.04-1.34-1.11-.09-.05-.17-.1-.26-.16-.55-.34-1.84-1.15-3-.03-.46,.44-1.11,1.45-.35,3.2,1.5,3.46,1.21,3.76-.97,6.11-.51,.55-1.04,1.1-1.57,1.64-1.85,1.92-3.76,3.9-5.21,6.29-1.52,2.51-2.45,5.43-2.92,9.2-.1,.78-.32,1.17-1.15,1.94-.78,.83-3.27,3.79-4.43,6.39-.75,1.66-1.69,3.4-3.51,4.81-2.46,1.92-4.19,4.53-5.86,7.07-.26,.39-.51,.78-.77,1.16-4.39,6.55-7.86,13.56-10.32,20.83-2.82,8.36-4,16.55-3.54,24.36-.45-.2-.93-.5-1.4-.89-4.3-3.49-8.36-5.99-12.41-7.66-2.68-1.11-5.04-1.48-7.2-1.14-5.35,.84-8.13,4.97-7.26,10.77,1.29,8.55,6.13,14.58,14.4,17.92,4.08,1.65,8.29,2.47,12.73,2.47,2.92,0,5.94-.36,9.1-1.07,.58-.18,.96-.37,1.24-.58,3.4,2.4,7.34,2.91,10.91,3.03,1.79,.06,3.58,.08,5.39,.08,2.42,0,4.86-.04,7.33-.09,.51-.01,1.1,0,1.69,0,.24,0,.47,0,.71,0,0,.01,0,.03,.02,.04,.84,1.97,2.88,3.65,5.09,4.17,1.28,.3,2.56,.42,3.82,.42,1.85,0,3.66-.26,5.38-.56,.34-.06,.68-.11,1.03-.17,1.99-.31,4.04-.64,5.73-2.13,.02,0,.12-.02,.31,0,2.06,.29,4.11,.23,6.1,.17,.89-.03,1.77-.06,2.66-.05,.08,0,.18,0,.28,0,.05,0,.09,0,.14,0,2.09,1.51,4.51,1.87,6.65,2.19,2.97,.45,6.04,.91,9.19,.14,2.41-.59,4.4-2.27,5.18-4.22,.54,0,1.09,0,1.65,.01,1.3,.01,2.62,.03,3.86,0,1.32-.02,2.64,0,3.95,.01,.87,.01,1.75,.02,2.64,.02,1.75,0,3.52-.04,5.28-.21,2.33-.22,5.01-.59,7.46-2.06,6.12-3.68,8.32-9.8,9.54-14.72,1.99-7.97,.86-15.8-.5-22.42Z"/>
    <path class="cls-1" d="M75.43,22.13c-3.35,.88-4.2,1.81-5,5.47-.04,.2-.33,.2-.37,0-.8-3.66-1.65-4.59-5-5.47-.19-.05-.19-.32,0-.37,3.35-.88,4.2-1.81,5-5.47,.04-.2,.33-.2,.37,0,.8,3.66,1.65,4.59,5,5.47,.19,.05,.19,.32,0,.37Z"/>
  </g>
  <g id="Gato_Trazo" data-name="Gato Trazo">
    <g>
      <path class="cls-3" d="M108.05,4.56c-.5,2.94,1.06,4.99,3,6.86,2.65,2.56,5.17,5.18,6.7,8.62,.91,2.04,1.54,4.13,1.74,6.34,.11,1.27,.29,1.73,1.5,3.35,1.36,1.46,2.5,2.43,3.44,4.21,1.2,3.06,3.24,5.44,5.54,7.82,5.56,5.77,9.4,12.75,12.74,19.99,2.27,4.91,3.98,10.04,5.07,15.32,1.5,7.27,2.34,14.66,.51,21.97-1.41,5.65-3.74,10.89-9.09,14.1-2.18,1.31-4.59,1.69-7.04,1.92-3.92,.38-7.86,.11-11.79,.18-1.99,.03-4.21-.02-6.21-.02"/>
      <path class="cls-3" d="M58.51,27.63c-.24,2.76-.1,4.5,.04,5.97,.72,7.51,4.11,10.11,10.61,11.76,4.67,1.19,9.47,1.79,14.25,2.26,2.43,.24,4.91-.33,7.39-.33,3.88,0,7.77-.11,11.61-.69,3.46-.53,6.93-1.05,10.22-2.42,4.05-1.7,6.17-4.78,6.86-8.99,.24-1.46,.42-2.92,.36-4.4-.02-.55-.1-1.12-.09-3.03"/>
      <path class="cls-3" d="M29.15,94.66c-1.12-.02-2.32-.77-3.11-1.41-3.73-3.03-7.72-5.69-12.16-7.52-2.07-.85-4.38-1.43-6.66-1.08-5.2,.82-7.13,4.91-6.42,9.63,1.24,8.23,5.88,13.95,13.79,17.14,6.97,2.82,13.96,3,21.15,1.38,1.32-.42,1.17-.74,1.44-.94"/>
      <path class="cls-3" d="M127.92,39.53c-.62,.93-.19,2.14,.07,2.84,2.53,6.95,4.13,14.05,3.79,21.49-.17,3.71-1.19,7.24-2.42,10.74-1.97,5.63-4.06,11.19-6.73,16.53-2.46,4.92-5.53,9.49-8.27,14.25-.83,1.44-1.63,3.09-2.39,4.56"/>
      <path class="cls-3" d="M50.47,39.53c.35,1.83-.79,3.87-1.23,5.5-1.47,5.43-2.95,10.88-2.93,16.55,.01,3.96,.71,7.84,2.04,11.63,2.35,6.72,4.81,13.38,8.14,19.69,2.44,4.63,5.43,8.94,7.94,13.54,.6,1.11,1.15,2.4,1.84,3.46"/>
      <path class="cls-3" d="M73.66,3.45c-.79-.81-1.81-1.81-2.23-2.05-.64-.36-1.37-1.02-2.07-.34-.56,.54-.46,1.33-.13,2.09,1.73,3.99,1.17,4.68-1.16,7.19-2.33,2.5-4.87,4.82-6.66,7.77-1.64,2.7-2.4,5.71-2.78,8.8-.14,1.11-.55,1.7-1.42,2.5-.93,.99-3.22,3.81-4.25,6.12-.9,2.01-1.93,3.74-3.81,5.19-2.7,2.1-4.5,5.14-6.41,8-4.3,6.42-7.73,13.27-10.2,20.59-2.74,8.11-4.09,16.47-3.44,24.98,.44,5.66,2.3,10.94,6.02,15.53,3.47,4.28,8.09,5.22,13.07,5.38,4.22,.14,8.45,.08,12.67,0,.94-.02,2.12,.03,3.13,.02"/>
      <path class="cls-3" d="M106.64,83.22c-.11,.59-.5,.97-.87,1.42-4.52,5.52-8.5,11.37-10.55,18.3-1.07,3.6-1.92,7.26-1.82,11.08,.02,.98,.28,2.35,.81,3.14"/>
      <path class="cls-3" d="M71.79,83.92c3.4,3.74,6.31,7.88,8.55,12.36,2.68,5.36,4.36,11.11,4.48,17.21,.02,1.17-.36,2.34-.37,3.49"/>
      <path class="cls-3" d="M104.7,2.97c-1.54-1.46-3.59-1.46-5.46-1.71-5.49-.75-11.02-.53-16.53-.35-2.78,.09-5.59,.41-8.28,1.33-.48,.16-.96,.43-1.31,.66"/>
      <path class="cls-3" d="M102.59,108.56c2.69-.65,5.3-.73,7.94,.49,2.54,1.18,3.96,3.54,3.68,5.84-.23,1.98-2.26,3.96-4.76,4.57-2.95,.72-5.87,.28-8.8-.16-2.25-.34-4.46-.69-6.35-2.11-.19-.14-.58-.08-.87-.08-2.87-.02-5.76,.29-8.62-.12-.37-.05-.79-.03-1.04,.19-1.83,1.6-4.12,1.72-6.34,2.11-2.93,.52-5.86,.84-8.8,.15-2.91-.69-6.18-4.03-4.08-7.57,1.02-1.72,2.46-2.74,4.26-3.31,2.46-.78,4.94-.67,7.39,.16"/>
      <path class="cls-3" d="M80.07,38.87c2.29,.69,4.49,1.63,6.85,2.18,2.85,.66,5.34-.29,7.93-.97,1.14-.3,2.23-.8,3.35-1.21"/>
      <g>
        <path class="cls-2" d="M89.26,27.79c.1,3.9-.49,4.04-1,4.85-1.85,2.37-6.93,4.04-11.02,2.37"/>
        <path class="cls-2" d="M89.04,27.79c.19,.02,.47-.02,.59-.09,.28-.17,.25-.54,.26-.79,.04-1,.44-1.43,1.45-1.43,.36,0,.76-.31,.86-.69,.15-.54-.22-.8-.68-1.06-1.42-.81-5.36-.21-5.68,.94-.03,.97,.79,.92,1.58,.91,.73,.22,.93,.67,1.13,1.21,.14,.39,.16,1,.5,.99"/>
        <path class="cls-2" d="M100.22,17.14c-.38,3.63-3.41,4.48-6.83,3.24"/>
        <path class="cls-2" d="M85.17,21.98c-.44-3.7-2.58-6.61-6.86-4.75,.3,3.77,3.03,4.38,6.53,3.1"/>
        <path class="cls-2" d="M101.53,17.76c-1.05-.57-2.15-1-3.34-1.05-2.76-.11-3.91,.84-4.8,3.67-.12,.4-.15,.9-.48,1.25"/>
        <path class="cls-2" d="M89.12,30.79c2.39,4.29,8.77,5.76,12.42,4.03"/>
      </g>
      <path class="cls-3" d="M73.38,6.32c-.56-1.13-1.56-2.03-1.8-3.39,1.45-.91,1.89,.55,2.68,1.11,.96,.67,1.88,1.4,2.82,2.1"/>
      <path class="cls-3" d="M101.18,6.14c2.51-1.54,4.31-3.97,6.87-5.5,1.12,.33,1.45,1.16,1.19,2.15-.23,.89-.78,1.52-1.9,1.63-1.36,.14-1.51,1.74-2.47,2.43"/>
    </g>
  </g>
</svg>