<?xml version="1.0" encoding="UTF-8"?>
<svg id="Capa_2" data-name="Capa 2" xmlns="http://www.w3.org/2000/svg" viewBox="0 0 111.54 111.54">
  <defs>
    <style>
      .cls-1 {
        fill: #fbd574;
      }
    </style>
  </defs>
  <path class="cls-1" d="M90.79,55.78c0,.9-1.09,2.29-1.77,2.96-4.12,4.17-8.27,8.3-12.42,12.44-1.28,1.28-3.01,1.4-4.23,.33-1.34-1.18-1.38-3.09-.06-4.42,2.55-2.57,5.12-5.13,7.69-7.69,.17-.17,.33-.35,.57-.6H30.98c.23,.25,.39,.43,.56,.6,2.56,2.56,5.14,5.12,7.68,7.69,1.66,1.68,1.06,4.34-1.13,5.01-1.17,.35-2.2,.06-3.07-.82-1.62-1.63-3.25-3.26-4.88-4.89-2.56-2.56-5.15-5.11-7.68-7.7-.65-.67-1.72-2.08-1.72-2.92,0-.46,0,.46,0,0,0-1.18,1.03-2.23,1.67-2.88,4.17-4.21,8.37-8.4,12.56-12.58,1.22-1.22,2.92-1.34,4.13-.33,1.38,1.16,1.45,3.12,.12,4.47-2.55,2.57-5.12,5.13-7.68,7.69-.17,.17-.33,.35-.56,.6h49.59c-.24-.25-.4-.43-.57-.6-2.56-2.56-5.14-5.12-7.68-7.69-1.66-1.68-1.06-4.34,1.13-5.01,1.17-.35,2.2-.05,3.07,.82,1.35,1.36,2.71,2.71,4.06,4.06,2.82,2.82,5.66,5.63,8.45,8.48,.67,.68,1.77,1.91,1.77,2.98h0Z"/>
</svg>