<?xml version="1.0" encoding="UTF-8"?>
<svg xmlns="http://www.w3.org/2000/svg" viewBox="0 0 120.5 128.88">
  <defs>
    <style>
      .cls-1 {
        fill: #803eb6;
      }

      .cls-2 {
        fill: #fff;
      }

      .cls-3, .cls-4 {
        fill: none;
        stroke: #803eb6;
        stroke-linecap: round;
        stroke-linejoin: round;
      }

      .cls-4 {
        stroke-width: 2px;
      }

      .cls-5 {
        fill: #fbd574;
      }
    </style>
  </defs>
  <g id="Gato_Relleno" data-name="Gato Relleno">
    <path class="cls-5" d="M118.84,104.52c-2.07-1.16-4.2-1.37-6.02-1.42-2.43-.06-4.9-.05-7.28-.03h-2.31c-2.37,.01-4.77-.4-7.41-1.27-.9-.3-1.8-.6-2.7-.91-5.05-1.72-10.26-3.48-15.71-3.79,0-.2,0-.4,0-.61-.16-4.13-1.16-8.21-2.97-12.13-2.95-6.36-7.43-12.06-13.71-17.42-.22-.19-.44-.39-.67-.6-.87-.78-1.83-1.65-2.99-2.17,.79-3.52,1.18-7.12,1.51-10.34,.15-1.43,.26-2.86,.37-4.3,.17-2.11,.34-4.29,.62-6.42,.62-4.75,2.36-8.07,5.49-10.45,.4-.3,3.86-3.03,2.77-5.09-.31-.73-.79-1.04-1.14-1.17,0,0,0,0,0,0-.01-.09-.02-.18-.02-.23-.09-2.75-1.44-5.09-3.61-6.26-2.19-1.18-4.92-1.02-7.3,.43l-.12,.08c-.07,.04-.16,.1-.13,.1-1.93-.14-4.39,.49-5.09,4.34-.15,.8-.38,1.22-.91,1.6-1.47,1.08-2,2.84-1.39,4.61,.15,.45,.02,.86-.23,1.55-.14,.39-.3,.84-.38,1.33-.07,.47-.13,.93-.19,1.4-.22,1.74-.43,3.38-1.03,4.94-.32,.84-.86,1.88-1.62,2.08-.74,.19-1.7-.43-2.37-.98-1.79-1.48-2.99-3.43-4.25-5.63-.16-.28-.43-.61-.72-.96,1.34-1.85,2.1-4.02,2.15-6.22,.07-3.41-.11-7.41-2.04-11.17-.01-.09,.04-.46,.3-1,1.11-2.34,1.47-4.79,1.68-6.89,.24-2.43-.14-4.87-1.08-6.87-.76-1.62-1.99-2.67-3.46-2.96-1.51-.29-3.13,.25-4.43,1.47-2.02,1.89-3.35,4.25-4.63,6.53l-.61,1.07c-.42,.72-.82,1.46-1.23,2.19-2.62-.68-5.75-.21-8.1,.22-1.64-2.76-3.78-6.1-6.1-8.19-1.01-.91-2.41-1.95-4.35-1.95h0C3.12,1.04,1.67,2.19,1.06,4.47c-.83,3.11-.43,6.15-.04,9.08l.16,1.21c.41,3.27,.22,5.9-.6,8.27-1.71,4.99-1.14,9.71,1.75,14.46,1.69,2.77,3.53,6.11,4.45,9.93,.15,.64,.14,1.32,.13,2.04v.59c0,4.02,.2,9.3,1.74,14.54,.71,2.41,1.34,4.77,1.3,7.26,0,.28,.08,.6,.21,.99-1.14,1.48-1.9,3.34-2.23,5.59-.32,2.13,1.02,5.02,2.71,6.27-1.06,3.5-1.5,7.31-1.26,11.06,.28,4.28,1.42,8.41,3.51,12.63,.76,1.54,1.66,2.96,2.69,4.27-.92,1.47-1.27,3.06-.94,4.38,.26,1.05,.94,1.86,1.95,2.32,.8,.37,2.66,1.23,4.81,1.23,1.04,0,2.14-.22,3.23-.77,1.58,.65,3.23,.98,4.95,.98,1.91,0,3.91-.4,6.03-1.2,.58-.22,1.12-.48,1.63-.77,3.03,1.08,5.98,.77,8.17-.9,2.34-1.78,4.32-2.15,6.62-1.22,.21,.08,.43,.14,.65,.19,.04,0,.08,.02,.13,.03-.12,.17-.41,.41-.54,.52-.78,.66-1.65,1.2-2.57,1.78-.76,.47-1.54,.96-2.28,1.52-1.69,1.29-1.99,2.58-1.93,3.42,.08,1.26,.93,2.37,2.52,3.3,2.63,1.53,5.38,1.79,7.79,1.79,.16,0,.31,0,.47,0,3.9-.05,6.77-1.51,8.53-4.36,1.48-2.39,3.2-4.69,4.87-6.91,1.24-1.65,2.53-3.36,3.71-5.12l.1-.15c.26-.39,.48-.72,.78-.85,3.11-1.33,6.06-1.43,9-.33,3.11,1.17,6.7,1.66,10.96,1.49,1.3-.05,2.61-.09,3.92-.13,4.25-.12,8.65-.25,12.96-.82l.3-.04c2.49-.33,5.07-.67,7.47-2.04,1.69-.96,2.04-2.03,2.03-2.76,0-.73-.36-1.79-2.04-2.73Z"/>
    <path class="cls-2" d="M68.17,81.27c-3.35,.88-4.2,1.81-5,5.47-.04,.2-.33,.2-.37,0-.8-3.66-1.65-4.59-5-5.47-.19-.05-.19-.32,0-.37,3.35-.88,4.2-1.81,5-5.47,.04-.2,.33-.2,.37,0,.8,3.66,1.65,4.59,5,5.47,.19,.05,.19,.32,0,.37Z"/>
  </g>
  <g id="Gato_Trazo" data-name="Gato Trazo">
    <g>
      <path class="cls-4" d="M16.01,13.44c-1.8-3.1-4.24-7.28-6.94-9.71-1.04-.94-2.19-1.69-3.69-1.69-1.84,0-2.88,.86-3.37,2.69-.89,3.33-.27,6.6,.14,9.91,.36,2.92,.33,5.88-.64,8.72-1.66,4.82-.97,9.29,1.66,13.61,1.95,3.2,3.68,6.52,4.56,10.22,.23,.95,.15,1.9,.15,2.85,0,4.82,.34,9.61,1.7,14.26,.73,2.48,1.38,4.95,1.34,7.56,0,.28,.23,.86,.35,1.14"/>
      <path class="cls-4" d="M11.82,84.24c-1.22,3.66-1.7,7.58-1.45,11.46,.28,4.36,1.49,8.38,3.41,12.25,2.15,4.35,5.34,7.64,9.55,10.11,3.95,2.32,7.91,2.12,11.93,.61,4.04-1.52,6.03-5.05,7.51-8.73,2.23-5.55,2.07-11.34,.71-17.09-1.16-4.89-3.43-9.22-6.86-12.93-3.1-3.34-6.88-5.35-11.42-5.86-1.19-.13-2.19-.04-3.34,.26-.48,.13-1.28,.58-1.94,1.2"/>
      <path class="cls-4" d="M76.43,98.04c6.62,.17,12.93,2.68,19.08,4.71,2.52,.83,5.07,1.34,7.72,1.33,3.19,0,6.38-.07,9.57,.02,1.91,.05,3.79,.3,5.56,1.29,2.04,1.14,2.04,2.59,0,3.75-2.32,1.33-4.88,1.62-7.41,1.95-5.56,.74-11.19,.73-16.78,.94-3.52,.14-7.17-.15-10.56-1.43-3.32-1.25-6.54-1.02-9.74,.35-.64,.27-.98,.85-1.32,1.36-2.77,4.09-6,7.84-8.6,12.06-1.73,2.79-4.48,3.84-7.69,3.88-2.71,.03-5.3-.23-7.74-1.65-2.77-1.62-2.47-3.54-.48-5.06,1.57-1.2,3.37-2.04,4.89-3.33,.54-.46,1.03-.9,.94-1.54-.1-.75-.88-.66-1.46-.89-2.86-1.16-5.23-.46-7.6,1.35-2.19,1.67-5.06,1.66-7.68,.6"/>
      <path class="cls-4" d="M65.09,27.61c.39-.19,1.33-.74,1.8,.35,.53,1.02-1.08,2.86-2.46,3.91-3.71,2.83-5.29,6.64-5.87,11.11-.47,3.57-.63,7.17-1,10.74-.38,3.72-.77,7.44-1.67,11.08-.84,3.4-3.83,4.37-6.85,2.16-2.37-1.73-4.67-3.57-6.73-5.68"/>
      <path class="cls-4" d="M65.8,27.33c-.06-.28-.15-.84-.16-1.12-.18-5.11-4.98-7.69-9.39-5.02-.28,.17-.5,.35-.85,.32-2.53-.19-3.62,1.26-4.04,3.52-.16,.88-.46,1.62-1.3,2.23-1.1,.81-1.51,2.09-1.03,3.48,.43,1.23-.4,2.23-.56,3.35-.32,2.2-.46,4.44-1.28,6.56-1.17,3.07-3.05,3.59-5.56,1.51-1.97-1.62-3.25-3.75-4.48-5.91-.21-.37-.9-1.11-1.12-1.44"/>
      <path class="cls-4" d="M55.89,64.81c1.66,.42,2.97,1.86,4.18,2.89,5.61,4.79,10.32,10.33,13.45,17.09,1.72,3.72,2.72,7.62,2.88,11.74,.17,4.5-.36,8.83-2.34,12.94-.16,.33-.32,.71-.9,2"/>
      <path class="cls-4" d="M31.9,40.14c.97-1.98,2.5-3.48,3.94-5.11,1.52-1.73,2.55-3.99,2.6-6.47,.08-3.72-.22-7.36-1.96-10.76-.23-.44,.05-1.27,.31-1.81,.99-2.08,1.37-4.34,1.59-6.56,.21-2.13-.07-4.4-.99-6.35C35.97,.05,33.09,.01,31.08,1.89c-2.21,2.07-3.56,4.78-5.05,7.37-1.08,1.89-2.13,3.8-3.19,5.7"/>
      <path class="cls-4" d="M57.08,91.16c-3.86,3.11-5.09,7.42-5.34,12.09-.17,3.2-.06,6.41,.64,9.57,.23,1.02,1.65,3.08,1.46,4.21"/>
      <path class="cls-4" d="M19.15,58.27c.45,4.59,1.43,9.13,1.51,13.76,0,.39,.16,.89-.02,1.16-1.16,1.76-.59,3.68-.68,5.55-.18,3.83-4.34,6.64-8.02,5.54-1.65-.49-3.33-3.63-3.02-5.71,.54-3.61,2.18-6.44,5.71-7.87,.22-.09,.33-.24,.5-.35"/>
      <path class="cls-4" d="M16.81,112.61c-1.56,2.06-1.96,4.84,.19,5.84,2.22,1.02,5.02,1.83,7.59,.26"/>
      <path class="cls-4" d="M24.42,12.13c-2.71-1.03-6.41-.35-9.08,.15"/>
      <g>
        <path class="cls-3" d="M31.57,25.2c-.75,.02-1.37-.29-2.02-.65-2.07-1.18-5.17,.16-5.86,2.5-.32,1.09-.66,2.21-.18,3.35"/>
        <path class="cls-3" d="M30.17,24.88c-.34,.84-.65,1.93-1.15,2.66-1.14,1.66-3.01,1.65-5.58,.4"/>
        <path class="cls-3" d="M14.28,29.4c0-3.34-1.43-5.06-4.52-5.74-1.07-.24-1.83-.05-2.58,.76,.64,1.16,.25,2.79,2.22,3.39,1.77,.54,3.17-.45,4.24-1.57"/>
        <path class="cls-3" d="M22.28,36.25c-.93,.51-2.16,.64-3.69,.12-.22-.08-.37-.09-.37-.17,0-.75-.17-1.34,.26-1.94,.53-.74,1.16-1.69,2.06-2.16-1.74-1.44-2.84-1.38-4.58,.07"/>
        <path class="cls-3" d="M14.45,35.78c1.72,1.35,2.46,1.03,3.77,.41"/>
        <path class="cls-3" d="M15.96,32.17c.88,.58,1.4,1.93,2.26,2.52"/>
      </g>
      <g>
        <path class="cls-1" d="M34.07,101.82c-1.09,3.09-4.27,4.86-7.1,6.11,0,0-.73,.29-.73,.29-.52,.22-1.3,.31-1.61,.58l.16-1.19c.66,1.85,1.21,3.71,1.42,5.7-1.38-1.44-2.46-3.06-3.44-4.76-.24-.4-.12-.86,.16-1.19,.67-.91,1.6-1.12,2.42-1.45,2.88-1.3,6.08-2.34,8.74-4.1h0Z"/>
        <path class="cls-1" d="M36.43,94.18c.36-.37,.75-.64,.89-1.03,.18-.4,.14-.69-.05-.91-.28-.39-.59-.19-.91-.05-3.22,2.26-5.94,5.33-9.48,7.22-1.69,.97-3.46,1.82-5.38,2.33,1.39-1.41,2.82-2.66,4.23-3.93,2.15-1.88,4.29-3.71,6.57-5.45,1.26-.88,2.8-2.06,4.49-1.95,2.52,.5,2.05,3.55-.36,3.77h0Z"/>
        <path class="cls-1" d="M40.29,96.87c-1.79-.91-2.93,.27-4.67,1.06-.41,.25-1.68,.55-2,.57,.04,0,.12-.03,.19-.08,.05-.03,.13-.15,.03,.01-2.43,4.2-7.25,6.16-11.85,6.66,3.4-2.66,7.38-4.4,9.86-7.94,.02-.02,.22-.33,.45-.5,.4-.4,1.27-.45,1.57-.42,1.97-.14,5.03-1.72,6.42,.64h0Z"/>
        <path class="cls-1" d="M37.61,87.13c-1.65,.56-2.74,1.54-3.91,2.64-2.4,2.27-5.02,4.4-8.01,5.89-1.52,.74-3.14,1.34-4.86,1.54,1.29-1.15,2.55-2.16,3.8-3.19,2.55-2.07,5.05-4.1,7.91-5.81,1.45-.86,3.38-1.6,5.07-1.07h0Z"/>
        <path class="cls-1" d="M38.95,106.6c.4-1.56,.54-3.03,.27-4.49-.11-.45-.35-.97-.66-1.21-.03,0,.05,.02,.02,.02-.06,0-.43,.14-.79,.4-1.25,.98-3.76,2.62-4.88,.49-.58-.99-.35-2.03-.78-3,1.08,.35,1.38,2.06,2.47,2.22,0,0-.39-.05-.39-.05,.33-.11,.6-.29,.93-.57,5.41-5.78,8.61,2.67,3.81,6.19h0Z"/>
        <path class="cls-1" d="M33.58,84.11c-3.14,4.74-8.51,9.28-14.43,9.4,2.37-1.71,4.47-3.54,6.91-5.09,2.38-1.6,4.72-3.35,7.52-4.31h0Z"/>
        <path class="cls-1" d="M30.56,81.09c-2.12,4.43-6.45,7.72-11.41,8.06,1.56-1.87,3.45-3.15,5.34-4.53,1.9-1.32,3.75-2.8,6.07-3.53h0Z"/>
        <path class="cls-1" d="M39.96,104.52c-1.07,.11-1.65,.55-2.27,1.33-.73,.79-1.56,1.46-2.43,2.03-1.82,1.15-3.68,1.94-5.87,2.25,.56-1,1.3-1.79,2.07-2.49,1.54-1.37,3.23-2.41,5.04-3.34,.97-.63,2.68-.76,3.46,.23h0Z"/>
        <path class="cls-1" d="M21.16,110.97l-.13,1.12c-.16,.95-1.18,.86-2.05,.55-.84-1.77,.86-3.03,2.18-1.67h0Z"/>
        <path class="cls-1" d="M17.81,101.4c-.42,1.79-2.14,2.23-3.36,.84,.41-1.8,2.14-2.23,3.36-.84h0Z"/>
        <path class="cls-1" d="M16.13,90.82c-.69,.62-.67,1.04-1.42,1.26-.72,.13-1.64-.18-1.94-1.09,.62-.71,.63-1.15,1.42-1.36,.75-.14,1.74,.23,1.94,1.19h0Z"/>
        <path class="cls-1" d="M12.8,94.95c.02-.98,.94-1.52,1.7-1.51,.82,.07,.9,.5,1.64,1.09-.13,.95-.98,1.41-1.72,1.41-.78-.08-.83-.5-1.62-.99h0Z"/>
        <path class="cls-1" d="M17.13,97.54c-.3,1.78-1.85,2.22-3.02,.84,.29-1.79,1.85-2.21,3.02-.84h0Z"/>
        <path class="cls-1" d="M35.67,101.41c1.88,.13,2.62,1.66,1.86,3.33-1.95,.22-2.95-1.77-1.86-3.33h0Z"/>
        <path class="cls-1" d="M18.31,104.42c-.15,1.79-1.62,2.32-2.85,1.01,.14-1.8,1.62-2.31,2.85-1.01h0Z"/>
        <path class="cls-1" d="M23.85,86.55c1.85,.33,2.96,1.64,2.06,3.47-1.91,0-3.25-1.8-2.06-3.47h0Z"/>
        <path class="cls-1" d="M19.15,108.28c-.45,.79-.05,1.1-.64,1.57-.57,.39-1.75,.36-2.05-.56,.51-.75,.09-1.07,.65-1.51,.56-.36,1.68-.36,2.03,.51h0Z"/>
        <path class="cls-1" d="M24.27,95.39c.93,.25,1.45,.31,1.94,1,.41,.7,.47,1.51-.07,2.33-.97-.15-1.52-.26-2.02-.96-.42-.71-.49-1.6,.15-2.37h0Z"/>
        <path class="cls-1" d="M25.3,90.39c1.83-.24,3.09,1.35,2.03,2.97-1.82,.02-2.86-1.26-2.03-2.97h0Z"/>
      </g>
    </g>
  </g>
</svg>