<?xml version="1.0" encoding="UTF-8"?>
<svg xmlns="http://www.w3.org/2000/svg" viewBox="0 0 101.85 120.5">
  <defs>
    <style>
      .cls-1 {
        fill: #fff;
      }

      .cls-2, .cls-3 {
        fill: none;
        stroke: #803eb6;
        stroke-linecap: round;
        stroke-linejoin: round;
      }

      .cls-3 {
        stroke-width: 2px;
      }

      .cls-4 {
        fill: #fbd574;
      }
    </style>
  </defs>
  <g id="Gato_Relleno" data-name="Gato Relleno">
    <path class="cls-4" d="M100.25,91.45c-.37-.42-.73-.84-1.08-1.26,1.61-2.23,1.27-3.93,.64-5-.29-.49-.59-.93-.91-1.34,1.94-2.52,.93-5.96-.67-8.29-.33-.48-.69-.94-1.05-1.4-.81-1.03-1.58-2-1.91-3.18l-.16-.57c-.21-.72-.41-1.39-.49-2.06-.23-1.93-.91-3.57-2.01-4.86-1.58-1.85-2.84-3.43-3.97-4.97-.78-1.07-1.61-1.67-2.54-1.82-.55-1.49-1.59-2.84-2.57-3.87,1.23-1.78,1.56-3.66,.93-5.38-.28-.77-.51-1.55-.75-2.38-.19-.65-.38-1.31-.59-1.95-.22-.65-.57-1.2-.92-1.74-.72-1.12-1.07-1.75-.59-2.71,.29-.59,.36-1.22,.42-1.78,.01-.14,.03-.29,.05-.43,.83-6.14,.23-12.16-.58-18.84-.02-.19-.04-.41-.06-.63-.09-1.13-.23-2.75-1.34-3.83,.46-1.59,.35-3.26-.34-5-.71-1.8-2.25-2.64-4.22-2.3-.58,.1-.83,.04-1.05-.1-3.69-2.25-7.89-3.72-13.21-4.64-.62-.11-1.25-.22-1.87-.33-2.87-.51-5.83-1.05-8.87-1.13-3.67-.1-7.93,.26-11.52,3.8-3.74,3.68-5.97,7.32-7,11.44-.29,1.14-.34,2.3-.39,3.5-.04,.82-.04,1.65-.04,2.47,0,1.63,0,3.16-.27,4.7-.03,.17-.04,.33-.04,.49-1.24,1.24-1.78,2.72-2.29,4.16-.13,.36-.25,.72-.39,1.08-.6,1.53-1.22,3.06-1.83,4.58-1.61,4-3.28,8.13-4.65,12.31-.37,1.12-.93,2.16-1.51,3.26-.83,1.55-1.69,3.15-2.02,5.04-.15,.86-.42,1.7-.71,2.59-.29,.9-.59,1.84-.76,2.81-.13,.71-.56,1.25-1.06,1.86-.47,.58-1,1.24-1.3,2.12l-.4,1.16c-1.35,3.9-2.75,7.94-3.34,12.15-.72,.18-1.59,.27-2.39,.34-.41,.04-.8,.08-1.15,.12-3.63,.48-5.4,1.42-5.65,5.46-.17,2.77-.14,5.71,.69,8.43-2.01,1.2-3.02,3.1-2.85,5.43,.33,4.56,1.44,8.41,3.4,11.74,2.54,4.33,6.81,5.47,10.66,6,3.75,.52,7.55,.46,11.23,.41,1.77-.03,3.6-.06,5.39-.02,5.16,.11,10.22,.61,16.25,1.32l.88,.11c2.86,.34,5.84,.69,8.79,.68h2.11c5.77-.06,11.75-.1,17.56,.68,.09,.01,.18,.02,.28,.02,.49,0,.98-.16,1.41-.31,.07-.02,.14-.05,.21-.07,1.29,.9,2.76,1.36,4.38,1.36,.17,0,.34,0,.51-.02,3.46-.2,6.81-.84,10.22-1.54l.44-.09c1.72-.34,3.49-.7,5.13-1.76,2.59-1.68,3.07-3.35,3.02-4.46-.04-.87-.46-2.06-1.97-3.2,2.72-3.19,3.14-7.4,1.13-11,.9-.88,1.4-1.79,1.52-2.77,.17-1.41-.47-2.9-1.94-4.57Z"/>
    <path class="cls-1" d="M51.79,17.56c-3.35,.88-4.2,1.81-5,5.47-.04,.2-.33,.2-.37,0-.8-3.66-1.65-4.59-5-5.47-.19-.05-.19-.32,0-.37,3.35-.88,4.2-1.81,5-5.47,.04-.2,.33-.2,.37,0,.8,3.66,1.65,4.59,5,5.47,.19,.05,.19,.32,0,.37Z"/>
  </g>
  <g id="Gato_Trazo" data-name="Gato Trazo">
    <g>
      <path class="cls-3" d="M3.71,94.02c-2.1,.95-3.22,2.59-3.06,4.86,.29,3.99,1.2,7.79,3.26,11.31,2.26,3.85,5.97,4.96,9.93,5.52,5.47,.76,11,.26,16.5,.38,5.47,.12,10.9,.68,16.34,1.32,3.16,.37,6.34,.79,9.55,.78,6.61-.03,13.23-.19,19.81,.69,.59,.08,1.44-.39,1.98-.45"/>
      <path class="cls-3" d="M51.2,72.47c.46,1.43,1.97,1.43,2.99,2.02,1.48,.87,3.2,1.35,4.83,1.97,2.14,.82,4.29,.5,6.43,0,4.08-.97,8.21-.77,12.34-.52,3.7,.22,7.4,.66,11.12,.52,.86-.03,1.65,.15,2.44,.51,.72,.34,.81,.92,.77,1.58-.12,2.07,.21,2.72,2.18,3.27,2.17,.61,3.59,2.07,4.65,3.87,.91,1.55,.06,3.21-1.05,4.5"/>
      <path class="cls-3" d="M70.5,111.88c-.83,.64-2.38,.85-3.31,.88-6.72,.23-13.43,.86-20.15,.51-5.22-.27-10.45-.36-15.64-1"/>
      <path class="cls-3" d="M11.91,79.94c-1.23,.48-3.03,.51-4.32,.68-3.4,.45-4.57,1.14-4.78,4.54-.35,5.71,.23,11.26,5.81,14.78,2.84,1.79,6.02,2.43,9.23,2.9,4.15,.6,8.24,1.45,12.34,2.26,1.8,.35,3.68,.65,5.55,.22"/>
      <path class="cls-3" d="M32.31,26.46c-1.65,1.42-2.05,3.36-2.78,5.2-2.2,5.6-4.58,11.12-6.47,16.84-.93,2.82-2.96,5.16-3.5,8.16-.33,1.84-1.15,3.59-1.47,5.4-.31,1.75-1.85,2.55-2.4,4.13-1.5,4.35-3.09,8.68-3.72,13.23-1.02,7.43,.51,14.16,6.04,19.64,3.09,3.06,6.92,3.18,10.56,1.96,2.86-.96,5.42-.78,8.21-.26,3.8,.7,7.64,1.09,11.46,.03,1.06-.29,2.18-.73,2.95-1.64"/>
      <path class="cls-3" d="M17.44,63.57c.45,1.2,.33,2.79,.27,4.04-.3,6.33-.67,12.68,.83,18.94,.8,3.36,2.24,6.36,4.87,8.69"/>
      <path class="cls-3" d="M53.98,12.35c-.94-3.74-2.97-6.55-6.59-8.19-2.66-1.2-4.08-.76-5.41,1.93-.85,1.72-1.05,3.52-1.04,5.39,.01,1.01-.01,1.84-1.16,2.52-.93,.55-1.56,1.74-1.96,2.87-.28,.79-.47,1.64-1.06,2.24-.59,.61-.5,1.35-.3,1.91,2.38,6.83,3.69,13.92,4.56,21.05,.69,5.67,1.04,11.41,.54,17.2-.4,4.71-.6,9.51,.1,14.24,.86,5.75,1.97,11.45,3.63,17.03,.16,.53,.19,1.49,.11,2.02"/>
      <path class="cls-3" d="M78.94,13.51c1.53,.89,1.41,2.95,1.57,4.23,.74,6.17,1.42,12.36,.58,18.58-.09,.64-.09,1.34-.37,1.9-1.09,2.2,.89,3.51,1.45,5.21,.48,1.44,.83,2.93,1.35,4.36,.73,2-.23,3.85-1.32,5.13-1.29,1.53-2.21,2.98-2.35,4.95-.02,.3-.5,.68-.67,.97"/>
      <path class="cls-3" d="M95.86,86.37c.67,2.26,2.11,4.02,3.64,5.74,2.59,2.94,2.16,4.92-.7,6.93-1.67,1.17-2.8,2.79-3.95,4.38-.67,.92-.7,2.15-.92,3.27-.18,.95,.52,1.18,1.06,1.56,.87,.62,1.83,1.08,2.77,1.58,3.63,1.89,3.67,4.53,.19,6.78-1.61,1.04-3.43,1.34-5.22,1.71-3.33,.68-6.69,1.32-10.08,1.52-1.91,.11-3.71-.47-5.25-1.98-2.05-2.01-4.3-3.82-6.5-5.67-5.13-4.32-11.56-6.52-16.73-10.72-1.69-1.37-3.31-2.81-4.55-4.67-1.92-2.89-4.65-4.83-7.78-6.3-2.44-1.15-4.52-2.79-5.4-5.53"/>
      <path class="cls-3" d="M97.58,83.83c2.27-2.07,1.4-5.4-.18-7.7-1.09-1.59-2.56-2.94-3.11-4.88-.26-.92-.57-1.84-.68-2.78-.19-1.62-.73-3.1-1.78-4.33-1.4-1.63-2.74-3.29-4.02-5.03-1.27-1.74-2.43-1.84-4.29-.69-.35,.22-.74,.36-1.08,.64-1.04,.87-1.95,1.02-3.15-.1-1.75-1.64-3.66-3.16-6.21-3.55-.94-.15-1.86-.08-2.79-.14-1.03-.06-2.05,.16-3-.65-.36-.31-1.17-.26-1.88-.09-5.18,1.24-10.37,2.44-15.46,4.02-1.88,.58-3.7,1.35-5.51,2.05-.9,.35-2.23,.29-3.04,.44"/>
      <path class="cls-3" d="M21.32,84.63c.78,1.73,2.53,2.46,3.85,3.62,3.13,2.73,6.26,5.43,10.02,7.4,3.07,1.6,6.17,2.81,9.59,3.23"/>
      <path class="cls-3" d="M73.27,84.81c5.2,4.69,9.96,9.78,14.1,15.45,1.48,2.02,3.02,4.01,4.84,5.75,.45,.43,1.16,1.05,2.08,1.77"/>
      <path class="cls-3" d="M22.05,50.83c.74,1.98,.63,4.32,.77,6.35,.29,4.1,1.1,8.19,.6,12.34-.03,.27,.13,.73,.34,.84,2.89,1.53,3.49,4.61,4.83,7.16,1.85,3.52,2.91,7.39,4.72,10.93"/>
      <path class="cls-3" d="M56.24,88.8c-3.03-.64-5.14-2.45-6.42-5.22-1.47-3.2-3.32-6.1-6.27-8.16-.29-.21-1.22-.63-1.63-.32"/>
      <path class="cls-3" d="M80.84,41.06c-.9,1.12-1.26,2.88-1.83,4.14-1.84,4.1-4.86,6.8-9.22,7.99-.76,.21-1.87,.19-2.48,1.44"/>
      <path class="cls-3" d="M52.77,94.89c4.02,.79,8,1.88,12.16,1.75,1.57-.05,3.08-.24,4.52-.88"/>
      <path class="cls-3" d="M68.08,10.12c-2.86-1.83-6.46-2.75-9.76-3.13-2.13-.24-4.71-.52-6.83,.23"/>
      <path class="cls-3" d="M43.91,61.52c2.38,1.53,5.12,2.26,7.66,3.45,1.74,.81,3.59,1.38,5.18,2.49,.4,.27,.6-.02,.88-.02"/>
      <path class="cls-3" d="M76.4,45.71c-.22,.12-.43-.11-.71,.15-2.47,2.36-5.35,4.18-8.15,6.09-.83,.56-1.52,1.33-1.4,2.44"/>
      <path class="cls-3" d="M23.76,70.36c-1.11,3.85-2.96,7.75-3.14,11.84"/>
      <path class="cls-3" d="M41.78,51.54c1.97-.65,4.33-1.57,6.31-2.13,2.28-.64,4.27-2.08,6.59-2.49,.44-.08,.63-.03,1.74-.34,2.55-.53,4.59-2.17,6.94-3.15,5.58-2.34,9.99-6.1,12.83-11.47,1.24-2.34,1.22-4.73,.39-7.5-.83-2.77-1.25-6.11,1.04-8.81,1.81-2.13,2.27-4.49,1.22-7.13-.58-1.47-1.75-1.92-3.13-1.69-.67,.12-1.21,.1-1.74-.23-3.97-2.42-8.32-3.73-12.86-4.51-3.51-.61-6.99-1.35-10.6-1.45-4.09-.12-7.74,.51-10.79,3.51-3.17,3.12-5.64,6.62-6.74,10.97-.27,1.06-.31,2.19-.36,3.3-.11,2.43,.11,4.87-.32,7.3-.18,1.02,.54,2,.52,3.12-.15,7.37,.77,14.65,2.04,21.89,.25,1.43,.36,2.89,.53,4.34"/>
      <path class="cls-3" d="M44.78,41.89c1.92,2.08,4.33,3.38,6.95,4.35,.56,.21,1.75,.66,2.72,.74"/>
      <path class="cls-3" d="M75.26,6.9c-1.72,.39-4.59,1.7-6.18,2.64-1.93,1.14-3.9,2.13-4.52,4.54-.03,.11-.44,.12-.67,.18"/>
      <path class="cls-3" d="M82.21,52.92c1.36,1.3,2.72,2.99,3.15,4.76"/>
      <g>
        <path class="cls-2" d="M61.65,44.27c-1.1-.9-4.18-.64-4.28-2.32-.07-.52,1.32-1.62,2.16-2.34,1.05-.91,.71-1.93-.67-2.22-1.52-.32-3.01-.27-4.4,1.08,1.33,.84,1.76,2.39,3,3.16"/>
        <path class="cls-2" d="M70.32,27.73c-1.05-.18-1.75-1.08-2.78-1.3-2.81-.61-4.92,.95-5.39,4-.14,.93-.34,1.85-.52,2.78"/>
        <path class="cls-2" d="M53.46,31.12c-.24-.67-.26-1.38-.38-2.08-.6-3.61-3.49-4.6-6.22-2.95-.91,.55-1.67,1.37-2.78,1.56"/>
        <path class="cls-2" d="M69.61,27.49c-.08,.72-.24,1.64-.52,2.23-.91,1.92-2.72,2.73-5.01,2.03-.57-.17-1.49-.76-1.93-1.33"/>
        <path class="cls-2" d="M46.25,26.5c.18,.85,.54,1.95,.96,2.7,1.36,2.41,3.02,2.45,5.99,.7"/>
        <path class="cls-2" d="M50.16,41.89c1.81,2.31,4.59,2.44,7.29,.45"/>
      </g>
      <path class="cls-3" d="M35.04,16.17c.18,1.13,.81,2.29,1.5,3.22"/>
      <path class="cls-3" d="M99.39,98.6c2.32,3.46,2.02,7.62-.74,10.71-.17,.19-.24,.59-.35,.82"/>
    </g>
  </g>
</svg>