<?xml version="1.0" encoding="UTF-8"?>
<svg xmlns="http://www.w3.org/2000/svg" viewBox="0 0 116.48 128.88">
  <defs>
    <style>
      .cls-1 {
        fill: #fff;
      }

      .cls-2, .cls-3 {
        fill: none;
        stroke: #803eb6;
        stroke-linecap: round;
        stroke-linejoin: round;
      }

      .cls-3 {
        stroke-width: 2px;
      }

      .cls-4 {
        fill: #fbd574;
      }
    </style>
  </defs>
  <g id="Gato_Relleno" data-name="Gato Relleno">
    <path class="cls-4" d="M113.15,14.48c-4.03-4.21-9.49-6.61-16.7-7.35-4.15-.42-8.57-.01-14.3,1.33-2.14,.5-4.28,1.09-6.35,1.67-4.21,1.16-8.56,2.37-12.99,2.84-2.25,.24-4.08,.16-5.76-.26-2.74-.69-4.73-2.5-6.64-6.04-.89-1.65-1.79-3.26-2.96-4.69C45.64-.23,42.6-1,39.87,.05c-2.65,1.02-4.42,2.96-5.43,5.93l-.1,.28c-.11,.31-.24,.68-.36,1.15-.97-1.36-2.27-2.47-3.63-3.48-1.29-.96-2.35-.9-3.01-.67-.5,.17-1.11,.56-1.63,1.38-.8-.62-1.84-1.32-3.16-1.13-.02,0-.04,.02-.07,.02-.08,.02-.15,.04-.22,.08-.05,.02-.09,.04-.13,.07-.07,.04-.12,.1-.17,.16-.03,.04-.07,.07-.09,.11-.04,.06-.06,.12-.09,.19-.02,.06-.04,.12-.06,.18,0,.03-.02,.05-.02,.07-.23,2.12,1.26,3.93,2.06,4.91,.06,.07,.09,.14,.14,.2-.77,.84-1.65,1.66-2.58,2.51-1.61,1.49-3.27,3.02-4.47,4.8-.76,1.13-1.16,2.2-1.22,3.26-.09,1.62-.57,3.18-1.51,4.89-1.37,2.5-.7,5.04,1.76,6.62,.16,.11,.33,.19,.5,.27,.24,.11,.31,.15,.37,.24,1.13,1.65,2.41,2.44,4.06,2.44,.71,0,1.49-.15,2.36-.43,1.07-.36,2.13-.75,3.19-1.15l.39-.15c.27-.1,.61-.16,.95-.06-1.41,1.85-2.38,4.15-2.92,6.98-.35,1.85-.95,3.68-1.53,5.46-.42,1.29-.85,2.62-1.2,3.97-.07,.27-.14,.64-.21,1-.75-.18-1.52-.43-2.31-.74-2.86-1.14-5.42-3.13-8.31-6.46-1.54-1.77-3.28-3.79-5.55-5.17-1.13-.69-2.55-.77-3.79-.21-1.15,.52-1.94,1.48-2.15,2.65-.25,1.38-.21,2.75,.11,3.97,.64,2.42,1.6,4.47,2.91,6.27,4.28,5.89,9.13,9.56,14.68,11.13-.71,1.94-1.5,3.36-2.39,4.32-.06-.01-.13-.03-.19-.03-1.02-.1-2.02,.55-2.97,1.9-.89,1.28-1.38,2.63-1.71,3.67-1.66,5.27-3.47,12.27-2.77,19.68l.09,1.02c.28,3.11,.56,6.33,2.09,9.31l1.05,2.06c1.2,2.36,2.44,4.81,3.79,7.16,.88,1.53,2.1,3.34,3.74,3.71,1.24,.28,1.94,1.08,2.76,2,.44,.5,.9,1.02,1.46,1.48,6.56,5.32,9.49,6.76,14.59,8.79,3.25,1.29,6.17,2.04,8.95,2.29l.23,.02c1.63,.15,3.29,.3,4.99,.3,.89,0,1.79-.04,2.71-.15,3.7-.43,6.87-.91,11.34-2.01,14.33-4.9,17.97-7.7,22.93-17.6,3.01-6.01,2.99-17.5,.96-23.76-1.45-4.48-4.14-8.64-8.44-13.08-1.76-1.81-3.63-3.54-5.45-5.21-2.05-1.89-4.17-3.84-6.1-5.89-2.78-2.97-5.88-6.61-7.74-11.09-1.15-2.76-1.5-4.98-1.11-6.99,.69-3.53,3.06-6.16,7.05-7.79,4.6-1.89,9.55-1.41,14.34-.95l5.73,.52c1.62,.15,3.25,.29,4.87,.44,3.23,.3,6.5-.12,9.57-.59,4.09-.61,7.18-1.7,9.72-3.43,3.15-2.14,4.99-4.91,5.31-7.99,.33-3.13-.98-6.41-3.69-9.24ZM55.2,31.33c-1.44-2.63-2.84-4.68-4.24-6.24-.2-.22-.68-.64-1.67-1.5-1.61-1.4-5.82-5.04-6.35-6.16,.03-.36-.14-.71-.45-.91-.02-1.37,.05-2.75,.14-4.03,.09-1.53,.38-2.3,.57-2.61,.16,.19,.4,.6,.61,1.32,1.04,5.06,2.65,6.75,3.82,7.99,1.43,1.6,1.97,1.95,3.63,2.94,.04,.02,.08,.05,.13,.06,3.16,1.33,4.27,1.33,7.29,1.12,5.26-.37,9.18-.8,11.16-1.7,6.96-2.46,14.16-5,21.86-3.85,2.82,.42,4.72,1.31,6.16,2.9,.32,.35,.69,.91,.63,1.55-.05,.53-.39,1.04-.98,1.49-1.19,.89-2.69,1.33-4.73,1.38-1.91,.05-3.81,.05-5.71,.05-4.42,0-9,.01-13.53,.57-4.18,.52-7.35,1.14-10.29,2.04-2.38,.73-5.35,1.78-8.06,3.6Zm6.53,39.66l1.49,1.82c3.43,4.2,6.98,8.54,9.94,13.16,2.23,3.49,3.65,6.7,4.33,9.81,.83,3.79,.08,7.54-2.22,11.15-1.9,2.97-4.74,5.29-8.94,7.3-1.12,.54-2.52,.74-3.85,.89l-.19,.02c-3.36,.4-6.84,.81-10.01-.06-.09-.02-.17-.04-.26-.06,1.5-1.42,2.64-3.2,3.59-5.1,.2,.03,.41,.05,.6,.05,1.37,0,2.64-.6,3.66-1.19,1.65-.95,2.47-2.48,2.25-4.18-.21-1.6-1.17-2.9-2.51-3.54,.02-.05,.04-.1,.07-.14,1.2-2.61,2.44-5.31,3.53-8.04,1.38-3.42,1.87-6.83,1.47-10.14-.48-3.99-1.69-7.38-3.6-10.05-.76-1.06-.81-2.05-.58-3.24,.46,.59,.89,1.12,1.24,1.54Z"/>
    <path class="cls-1" d="M52.26,92.43c-3.24,.85-4.06,1.75-4.84,5.29-.04,.19-.32,.19-.36,0-.77-3.54-1.6-4.43-4.84-5.29-.18-.05-.18-.31,0-.36,3.24-.85,4.06-1.75,4.84-5.29,.04-.19,.32-.19,.36,0,.77,3.54,1.6,4.43,4.84,5.29,.18,.05,.18,.31,0,.36Z"/>
  </g>
  <g id="Gato_Trazo" data-name="Gato Trazo">
    <g>
      <path class="cls-3" d="M34.67,13.26c-.27-4.69,.37-5.92,.72-6.95,.85-2.5,2.29-4.34,4.84-5.32,2.28-.88,4.89-.27,6.45,1.62,1.15,1.39,2.01,2.96,2.86,4.53,1.66,3.08,3.76,5.66,7.27,6.54,1.98,.5,3.99,.52,6.11,.29,6.7-.72,12.98-3,19.46-4.53,4.56-1.07,9.26-1.8,13.97-1.31,6.08,.62,11.71,2.48,16.08,7.05,4.98,5.2,4.68,11.54-1.46,15.72-2.77,1.88-5.98,2.77-9.3,3.27-3.1,.46-6.21,.87-9.32,.58-3.06-.28-6.12-.55-9.18-.83-5.42-.5-10.94-1.28-16.23,.89-3.91,1.6-6.83,4.29-7.65,8.53-.49,2.53,.13,5.08,1.17,7.56,1.83,4.4,4.74,7.98,7.94,11.39,3.66,3.9,7.83,7.28,11.56,11.11,3.57,3.68,6.6,7.74,8.21,12.69,1.99,6.14,1.96,17.29-.9,23-4.88,9.74-8.31,12.3-22.36,17.11-4.27,1.04-7.39,1.53-11.13,1.96-2.64,.31-5.18,.05-7.72-.18-2.97-.27-5.9-1.13-8.67-2.23-5.05-2-7.9-3.43-14.33-8.64-1.52-1.22-2.31-3.16-4.63-3.68-1.24-.28-2.32-1.87-3.09-3.23-1.72-3-3.24-6.1-4.81-9.17-1.6-3.13-1.76-6.58-2.08-9.97-.62-6.63,.76-13.01,2.73-19.29,.37-1.19,.83-2.34,1.57-3.4,1.4-2,2.69-2.02,3.7,.19,1.14,2.48,1.54,5.17,1.79,7.87,.04,.43-.06,.88,.16,1.29"/>
      <path class="cls-3" d="M49.81,115.5c3.14-2.02,4.84-5.7,6.24-8.98,2-4.7,4.3-9.27,6.21-14.02,1.25-3.1,1.8-6.34,1.41-9.64-.41-3.43-1.42-6.79-3.42-9.59-1.14-1.6-.98-3.11-.62-4.54,.34-1.38,.01-2.22-.72-3.25-3.78-5.36-6.94-11.04-8.86-17.35-1.9-6.23-.55-11.04,4.52-15.09,2.64-2.11,5.78-3.37,8.99-4.34,3.3-1,6.68-1.58,10.12-2,6.38-.79,12.76-.46,19.14-.62,1.87-.04,3.73-.4,5.31-1.58,1.65-1.24,1.84-3.02,.48-4.5-1.82-1.99-4.18-2.83-6.76-3.21-7.88-1.17-15.13,1.36-22.34,3.9-1.99,.91-6.09,1.31-10.89,1.65-2.83,.19-3.82,.22-6.83-1.05-1.63-.97-2.09-1.29-3.4-2.75-1.12-1.17-2.6-2.71-3.59-7.52-.93-3.26-2.88-3.1-3.16,1.43-.16,2.24-.32,5.54,.28,8.27,1.52,5.15,1.38,5.3,1.78,9.41,.22,2.3,.35,6.32,.15,8.63-.56,6.42-2.61,12.46-7.33,17.41-3.23,3.39-7.15,5.21-11.9,5.33-9.31,.24-15.86-4.45-21.06-11.6-1.3-1.79-2.18-3.8-2.75-5.94-.31-1.18-.3-2.41-.09-3.53,.34-1.88,2.76-2.79,4.44-1.76,2.1,1.28,3.72,3.13,5.31,4.97,2.45,2.83,5.18,5.33,8.69,6.73,6.07,2.41,11.61,1.29,15.55-4.67,2.52-3.8,3.11-8.14,2.98-12.68-.17-5.7-1.48-11.19-2.56-16.73-.23-1.2-.5-2.47-.5-3.69,0-3.68-2.28-5.9-4.89-7.84-1.75-1.3-3.14-.44-3.74,1.72-.26,.92-.19,2.33-.84,3.14"/>
      <path class="cls-3" d="M59.22,65.96c1.41,2.2,2.83,3.84,3.66,4.86,3.87,4.75,7.81,9.45,11.11,14.62,2.01,3.14,3.67,6.5,4.46,10.14,.92,4.23-.01,8.22-2.35,11.89-2.29,3.59-5.63,5.89-9.36,7.67-1.26,.6-2.75,.82-4.16,.98-3.53,.42-7.16,.87-10.59-.06-3.66-1-7.61-1.5-10.77-3.81-3.11-2.27-6.49-2.83-10.16-2.53"/>
      <path class="cls-3" d="M32.36,30.11c-3.97,2.08-5.79,5.62-6.58,9.81-.62,3.25-1.92,6.3-2.74,9.49-.14,.53-.28,1.4-.38,1.94"/>
      <path class="cls-3" d="M25.18,9.6c-2.21,2.6-5.54,4.9-7.48,7.79-.59,.88-1,1.79-1.05,2.76-.11,1.93-.72,3.64-1.63,5.31-1.13,2.07-.56,4.02,1.43,5.3,.39,.25,.83,.3,1.16,.78,1.37,2,2.85,2.43,5.28,1.62,1.19-.4,2.36-.84,3.54-1.28,.96-.36,2-.18,2.72,.7"/>
      <path class="cls-3" d="M58.22,101.66c1.66,.25,2.7,1.61,2.89,3.07,.18,1.41-.58,2.51-1.75,3.19-1.21,.7-2.76,1.4-4.31,.86"/>
      <path class="cls-3" d="M41.96,17.34c-.53,1.15,7.59,7.67,8.26,8.42,1.82,2.03,3.38,4.65,4.64,7.04"/>
      <path class="cls-3" d="M59.49,71.62c-1.19-.51-2.61-1.99-3.97-2.12-1.81-.18-3.46,.15-4.82,1.45"/>
      <path class="cls-3" d="M18.75,60.93c-.68,2.1-1.73,4.64-3.43,6.15"/>
      <path class="cls-3" d="M22.7,4.51c-.17,1.62,.95,3.09,1.84,4.16,.95,1.16,1.32,2.38,1.55,3.75"/>
      <g>
        <path class="cls-2" d="M23.35,21.59c-.76-.41-1.62-.13-2.43-.43-.59-.23-1.19,.26-1.42,.92-.22,.61-.46,1.18-.97,1.61"/>
        <path class="cls-2" d="M21.88,21.33c-.33,1.85-1.22,2.46-2.74,1.6"/>
      </g>
      <path class="cls-3" d="M22.7,4.51c1.38-.2,2.44,1.07,3.4,1.68"/>
    </g>
  </g>
</svg>